<svg width="5" height="8" viewBox="0 0 5 8" fill="none" xmlns="http://www.w3.org/2000/svg">
<path d="M3.40052 3.99987L0.800521 1.39987C0.678299 1.27765 0.617188 1.12209 0.617188 0.933203C0.617188 0.744314 0.678299 0.588759 0.800521 0.466536C0.922743 0.344314 1.0783 0.283203 1.26719 0.283203C1.45608 0.283203 1.61163 0.344314 1.73385 0.466536L4.80052 3.5332C4.86719 3.59987 4.91441 3.67209 4.94219 3.74987C4.96997 3.82765 4.98385 3.91098 4.98385 3.99987C4.98385 4.08876 4.96997 4.17209 4.94219 4.24987C4.91441 4.32765 4.86719 4.39987 4.80052 4.46654L1.73385 7.5332C1.61163 7.65543 1.45608 7.71654 1.26719 7.71654C1.0783 7.71654 0.922743 7.65543 0.800521 7.5332C0.678299 7.41098 0.617188 7.25543 0.617188 7.06654C0.617188 6.87765 0.678299 6.72209 0.800521 6.59987L3.40052 3.99987Z" fill="white"/>
</svg>
