<svg width="137" height="24" viewBox="0 0 137 24" fill="none" xmlns="http://www.w3.org/2000/svg">
<rect x="1.89773" y="1.89773" width="32.894" height="15.1819" rx="7.59093" stroke="#45C58B" stroke-width="3.79547"/>
<path d="M130.616 18.699C129.418 18.699 128.322 18.5514 127.326 18.2562C126.339 17.961 125.488 17.5435 124.771 17.0037L126.061 14.1571C126.761 14.6041 127.512 14.9583 128.313 15.2198C129.114 15.4728 129.873 15.5993 130.59 15.5993C131.248 15.5993 131.75 15.5108 132.096 15.3337C132.442 15.1481 132.615 14.8824 132.615 14.5366C132.615 14.233 132.454 14.0095 132.134 13.8661C131.822 13.7227 131.206 13.5667 130.287 13.398C128.549 13.1028 127.276 12.6178 126.466 11.943C125.665 11.2599 125.264 10.3279 125.264 9.14705C125.264 8.30361 125.496 7.56561 125.96 6.93303C126.424 6.30045 127.065 5.81126 127.883 5.46545C128.709 5.1112 129.658 4.93408 130.73 4.93408C131.775 4.93408 132.762 5.07325 133.69 5.35158C134.626 5.62992 135.427 6.0179 136.094 6.51553L134.841 9.36213C134.495 9.10066 134.095 8.86871 133.639 8.66629C133.192 8.46387 132.728 8.30783 132.248 8.19818C131.767 8.08854 131.299 8.03371 130.843 8.03371C130.278 8.03371 129.819 8.12227 129.464 8.2994C129.119 8.46808 128.946 8.70425 128.946 9.00788C128.946 9.31995 129.097 9.5519 129.401 9.70372C129.705 9.85554 130.312 10.0284 131.223 10.2224C133.062 10.5935 134.365 11.0954 135.132 11.728C135.9 12.3521 136.284 13.2293 136.284 14.3595C136.284 15.2367 136.043 16 135.562 16.6494C135.09 17.2989 134.428 17.8049 133.576 18.1676C132.733 18.5219 131.746 18.699 130.616 18.699Z" fill="white"/>
<path d="M114.623 18.3448L110.068 5.44019H114.522L117.267 14.7644H116.812L119.494 5.44019H123.846L119.456 18.3448H114.623Z" fill="white"/>
<path d="M102.797 18.7242C101.38 18.7242 100.136 18.4417 99.0649 17.8766C97.9937 17.303 97.1587 16.506 96.5599 15.4854C95.9611 14.4564 95.6616 13.2545 95.6616 11.8797C95.6616 10.8845 95.8345 9.96935 96.1803 9.13435C96.5346 8.29935 97.0238 7.57821 97.6479 6.97093C98.2805 6.36366 99.0227 5.89555 99.8746 5.56661C100.735 5.22923 101.68 5.06055 102.709 5.06055C103.839 5.06055 104.847 5.26297 105.732 5.66782C106.618 6.06424 107.347 6.62091 107.921 7.33783C108.503 8.04631 108.904 8.88553 109.123 9.85549C109.342 10.817 109.351 11.8629 109.148 12.9931H99.4571C99.4655 13.4991 99.6174 13.9419 99.9126 14.3215C100.208 14.701 100.613 15.0005 101.127 15.2197C101.642 15.4306 102.24 15.536 102.924 15.536C103.683 15.536 104.404 15.439 105.087 15.245C105.77 15.0426 106.424 14.7348 107.048 14.3215L108.351 17.1301C107.955 17.4338 107.44 17.7079 106.808 17.9525C106.184 18.1886 105.517 18.3742 104.809 18.5091C104.109 18.6525 103.438 18.7242 102.797 18.7242ZM99.7101 10.1971H105.201C105.184 9.54763 104.944 9.02892 104.48 8.64094C104.016 8.25296 103.388 8.05897 102.595 8.05897C101.793 8.05897 101.127 8.25296 100.596 8.64094C100.073 9.02892 99.7776 9.54763 99.7101 10.1971Z" fill="white"/>
<path d="M78.6444 18.3447V0.632568H84.7171C86.5558 0.632568 88.1668 1.0079 89.55 1.75856C90.9417 2.50922 92.0255 3.55086 92.8015 4.88349C93.5774 6.20769 93.9654 7.74274 93.9654 9.48866C93.9654 10.8044 93.7419 12.0063 93.2949 13.0943C92.8563 14.1739 92.2279 15.1059 91.4098 15.8903C90.5916 16.6747 89.6175 17.282 88.4873 17.7122C87.3571 18.1339 86.1003 18.3447 84.7171 18.3447H78.6444ZM82.8447 14.4354H84.502C85.2611 14.4354 85.9485 14.33 86.5642 14.1191C87.1799 13.9083 87.7113 13.592 88.1583 13.1703C88.6138 12.7485 88.9596 12.2298 89.1958 11.6141C89.4404 10.9984 89.5627 10.2899 89.5627 9.48866C89.5627 8.41749 89.3518 7.51501 88.9301 6.78122C88.5084 6.039 87.9137 5.48233 87.1462 5.11122C86.3871 4.73167 85.5057 4.5419 84.502 4.5419H82.8447V14.4354Z" fill="white"/>
<path d="M65.4733 24C64.8829 24 64.3051 23.941 63.74 23.8229C63.1749 23.7048 62.6562 23.515 62.1839 23.2536L63.0568 19.787C63.3351 19.9304 63.6388 20.0443 63.9677 20.1286C64.2967 20.213 64.6045 20.2552 64.8913 20.2552C65.3552 20.2552 65.7474 20.1582 66.0679 19.9642C66.3968 19.7702 66.633 19.4497 66.7764 19.0027L66.9661 18.3954L61.9561 5.44019H66.4601L69.3193 14.2836L72.09 5.44019H76.4801L71.1285 19.6226C70.6899 20.719 70.1796 21.5836 69.5977 22.2161C69.0241 22.8572 68.3873 23.3126 67.6873 23.5825C66.9872 23.8608 66.2492 24 65.4733 24Z" fill="white"/>
<path d="M55.9395 18.3447V0.126465H60.0892V18.3447H55.9395Z" fill="white"/>
<path d="M39.3838 18.3447V5.44009H43.5335V6.80646C44.0143 6.19919 44.5836 5.75638 45.2415 5.47805C45.8994 5.19971 46.591 5.06055 47.3163 5.06055C48.5309 5.06055 49.5304 5.30093 50.3147 5.78169C51.0991 6.25401 51.6769 6.86972 52.048 7.62881C52.4276 8.37947 52.6173 9.17652 52.6173 10.02V18.3447H48.4676V11.3231C48.4676 10.5471 48.261 9.93561 47.8477 9.48859C47.4428 9.04157 46.844 8.81806 46.0512 8.81806C45.5451 8.81806 45.1023 8.92771 44.7228 9.147C44.3516 9.36629 44.0607 9.67836 43.8498 10.0832C43.6389 10.4796 43.5335 10.9351 43.5335 11.4496V18.3447H39.3838Z" fill="white"/>
<circle cx="27.2008" cy="9.48867" r="7.59093" stroke="white" stroke-width="3.79547"/>
</svg>
